<svg xmlns="http://www.w3.org/2000/svg" xmlns:xlink="http://www.w3.org/1999/xlink" width="215" zoomAndPan="magnify" viewBox="0 0 161.25 175.499993" height="234" preserveAspectRatio="xMidYMid meet" version="1.0"><defs><clipPath id="id1"><path d="M 0 0.15625 L 160.503906 0.15625 L 160.503906 174.84375 L 0 174.84375 Z M 0 0.15625 " clip-rule="nonzero"/></clipPath><clipPath id="id2"><path d="M 3 6.296875 L 160 6.296875 L 160 167 L 3 167 Z M 3 6.296875 " clip-rule="nonzero"/></clipPath></defs><g clip-path="url(#id1)"><path fill="rgb(100%, 100%, 100%)" d="M 0 0.15625 L 161.25 0.15625 L 161.25 183.058594 L 0 183.058594 Z M 0 0.15625 " fill-opacity="1" fill-rule="nonzero"/><path fill="rgb(100%, 100%, 100%)" d="M 0 0.15625 L 160.503906 0.15625 L 160.503906 174.84375 L 0 174.84375 Z M 0 0.15625 " fill-opacity="1" fill-rule="nonzero"/><path fill="rgb(100%, 100%, 100%)" d="M 0 0.15625 L 160.503906 0.15625 L 160.503906 174.84375 L 0 174.84375 Z M 0 0.15625 " fill-opacity="1" fill-rule="nonzero"/><path fill="rgb(100%, 100%, 100%)" d="M 0 0.15625 L 160.503906 0.15625 L 160.503906 174.84375 L 0 174.84375 Z M 0 0.15625 " fill-opacity="1" fill-rule="nonzero"/></g><g clip-path="url(#id2)"><path fill="rgb(0%, 0%, 0%)" d="M 14.457031 79.167969 C 14.992188 78.988281 15.496094 78.8125 16.105469 78.632812 C 15.316406 75.941406 14.5625 73.25 13.8125 70.597656 C 10.765625 60.019531 7.71875 49.4375 4.671875 38.824219 C 1.765625 28.710938 5.566406 17.484375 13.632812 12 C 17.394531 9.417969 21.589844 8.449219 26.105469 8.699219 C 27.109375 8.773438 27.96875 8.699219 29.007812 8.019531 C 30.335938 7.15625 32.164062 6.835938 33.8125 6.691406 C 35.675781 6.511719 36.5 7.910156 36.464844 10.566406 C 36.429688 13.324219 35.675781 14.507812 33.742188 14.367188 C 31.839844 14.222656 29.90625 13.972656 28.398438 12.5 C 28.257812 12.359375 27.933594 12.320312 27.683594 12.285156 C 17.824219 11.355469 10.117188 17.019531 7.859375 26.808594 C 6.855469 31.078125 7.289062 35.238281 8.507812 39.398438 C 12.125 51.84375 15.675781 64.320312 19.296875 76.765625 C 19.367188 77.054688 19.511719 77.339844 19.617188 77.734375 C 20.15625 77.664062 20.65625 77.589844 21.304688 77.484375 C 21.769531 79.347656 22.234375 81.214844 22.738281 83.078125 C 24.027344 87.957031 25.390625 92.832031 28.078125 97.171875 C 31.230469 102.335938 35.890625 105.027344 41.878906 105.277344 C 44.207031 105.382812 46.574219 105.277344 48.867188 104.917969 C 53.457031 104.164062 56.898438 101.617188 59.40625 97.746094 C 62.058594 93.65625 63.457031 89.101562 64.710938 84.476562 C 65.355469 82.179688 65.929688 79.851562 66.539062 77.484375 C 67.078125 77.554688 67.578125 77.628906 68.261719 77.734375 C 68.796875 75.871094 69.335938 74.039062 69.875 72.175781 C 73.207031 60.664062 76.613281 49.152344 79.804688 37.605469 C 81.808594 30.359375 80.339844 23.691406 75.5 17.917969 C 72.203125 14.007812 67.902344 12.035156 62.742188 12.25 C 61.378906 12.320312 60.050781 12.070312 58.691406 13.148438 C 57.613281 14.007812 55.894531 14.1875 54.425781 14.402344 C 52.667969 14.652344 51.484375 13.46875 51.414062 11.675781 C 51.378906 10.960938 51.414062 10.242188 51.414062 9.558594 C 51.449219 7.589844 52.773438 6.296875 54.675781 6.726562 C 56.324219 7.121094 58.222656 7.121094 59.476562 8.59375 C 59.65625 8.808594 60.230469 8.699219 60.589844 8.734375 C 63.0625 8.914062 65.609375 8.699219 67.972656 9.273438 C 76.183594 11.390625 80.84375 17.164062 83.171875 25.015625 C 84.535156 29.609375 84.460938 34.269531 83.136719 38.894531 C 79.445312 51.699219 75.789062 64.5 72.132812 77.304688 C 72.023438 77.699219 71.882812 78.058594 71.738281 78.523438 C 72.273438 78.738281 72.777344 78.953125 73.386719 79.203125 C 71.414062 86.808594 69.800781 94.554688 65.5 101.332031 C 61.59375 107.5 56 111.085938 48.832031 112.234375 C 48.4375 112.304688 47.863281 112.84375 47.757812 113.238281 C 46.96875 116.324219 46.394531 119.441406 46.574219 122.671875 C 46.824219 127.117188 46.539062 131.671875 47.21875 136.046875 C 49.296875 149.066406 60.625 159.609375 73.710938 161.1875 C 90.84375 163.265625 105.933594 151.96875 108.730469 134.972656 C 108.980469 133.535156 109.089844 132.066406 109.089844 130.59375 C 109.125 119.476562 108.945312 108.359375 109.125 97.242188 C 109.375 81.714844 116.6875 70.492188 130.597656 63.605469 C 131.3125 63.246094 131.636719 62.851562 131.671875 62.027344 C 131.992188 55.785156 136.832031 50.371094 142.746094 49.296875 C 148.554688 48.21875 153.320312 49.90625 156.835938 54.53125 C 160.3125 59.085938 160.742188 64.179688 158.195312 69.308594 C 155.582031 74.542969 151.136719 77.195312 145.292969 77.054688 C 139.953125 76.945312 135.972656 74.363281 133.285156 69.738281 C 133.070312 69.378906 132.855469 68.984375 132.601562 68.519531 C 127.476562 70.886719 123.355469 74.328125 120.128906 78.882812 C 116.292969 84.296875 114.394531 90.324219 114.359375 96.957031 C 114.320312 107.894531 114.359375 118.832031 114.359375 129.808594 C 114.359375 148.277344 101.703125 163.265625 83.496094 166.421875 C 68.332031 169.039062 52.34375 160.898438 45.390625 147.234375 C 42.558594 141.605469 41.125 135.761719 41.195312 129.484375 C 41.234375 127.1875 41.089844 124.859375 41.234375 122.5625 C 41.414062 119.371094 40.804688 116.324219 40.015625 113.273438 C 39.90625 112.878906 39.441406 112.339844 39.082031 112.304688 C 30.40625 110.980469 24.421875 106.101562 20.515625 98.390625 C 17.824219 93.046875 16.355469 87.308594 14.957031 81.535156 C 14.816406 80.78125 14.636719 79.992188 14.457031 79.167969 Z M 135.363281 61.703125 C 137.191406 61.488281 138.519531 61.058594 139.449219 59.195312 C 141.132812 55.859375 145.398438 54.746094 148.769531 56.359375 C 152.175781 57.9375 153.859375 61.847656 152.640625 65.398438 C 151.636719 68.230469 149.59375 69.953125 146.617188 70.347656 C 143.789062 70.742188 141.457031 69.738281 139.773438 67.441406 C 139.128906 66.546875 138.554688 66.332031 137.585938 66.726562 C 137.121094 66.941406 136.617188 67.011719 136.117188 67.191406 C 137.765625 71.746094 143.214844 74.472656 148.054688 73.25 C 153.394531 71.925781 156.835938 66.902344 156.082031 61.5625 C 155.328125 56.324219 150.632812 52.308594 145.4375 52.488281 C 140.203125 52.667969 135.648438 56.753906 135.363281 61.703125 Z M 135.363281 61.703125 " fill-opacity="1" fill-rule="nonzero"/></g></svg>