<svg xmlns="http://www.w3.org/2000/svg" xmlns:xlink="http://www.w3.org/1999/xlink" width="150" zoomAndPan="magnify" viewBox="0 0 112.5 119.249998" height="159" preserveAspectRatio="xMidYMid meet" version="1.0"><defs><clipPath id="id1"><path d="M 0.101562 0 L 111.898438 0 L 111.898438 118.503906 L 0.101562 118.503906 Z M 0.101562 0 " clip-rule="nonzero"/></clipPath><clipPath id="id2"><path d="M 28 0 L 111.898438 0 L 111.898438 118 L 28 118 Z M 28 0 " clip-rule="nonzero"/></clipPath><clipPath id="id3"><path d="M 0.195312 61 L 24 61 L 24 115 L 0.195312 115 Z M 0.195312 61 " clip-rule="nonzero"/></clipPath></defs><g clip-path="url(#id1)"><path fill="rgb(100%, 100%, 100%)" d="M 0.101562 0 L 112.398438 0 L 112.398438 125.769531 L 0.101562 125.769531 Z M 0.101562 0 " fill-opacity="1" fill-rule="nonzero"/><path fill="rgb(100%, 100%, 100%)" d="M 0.101562 0 L 112.398438 0 L 112.398438 119.03125 L 0.101562 119.03125 Z M 0.101562 0 " fill-opacity="1" fill-rule="nonzero"/><path fill="rgb(100%, 100%, 100%)" d="M 0.101562 0 L 112.398438 0 L 112.398438 119.03125 L 0.101562 119.03125 Z M 0.101562 0 " fill-opacity="1" fill-rule="nonzero"/><path fill="rgb(100%, 100%, 100%)" d="M 0.101562 0 L 112.398438 0 L 112.398438 119.03125 L 0.101562 119.03125 Z M 0.101562 0 " fill-opacity="1" fill-rule="nonzero"/></g><g clip-path="url(#id2)"><path fill="rgb(0%, 0%, 0%)" d="M 107.996094 66.734375 C 108.246094 64.828125 111.765625 62.007812 111.878906 60.085938 C 112.082031 56.597656 107.359375 49.765625 104.113281 48.457031 C 98.957031 46.375 72.761719 47.347656 72.761719 47.347656 C 70.203125 42.878906 77.324219 31.847656 79.285156 27.085938 C 82.160156 20.105469 81.675781 10.84375 78.039062 6.085938 C 73.597656 0.269531 65.445312 -0.117188 65.277344 2.484375 C 64.0625 21.351562 60.441406 26.585938 55.597656 30.316406 C 52.691406 32.554688 50.144531 34.515625 48.804688 37.933594 C 40.546875 58.921875 34.429688 63.777344 30.933594 63.777344 L 28.601562 63.777344 L 28.601562 111.484375 L 53.074219 116.027344 C 53.074219 116.027344 83.453125 118.898438 93.019531 116.027344 C 96.027344 115.125 101.222656 110.613281 102.449219 107.71875 C 103.152344 106.058594 102.179688 102.121094 103.007812 100.519531 C 104.230469 98.140625 109.394531 95.164062 109.390625 91.933594 C 109.386719 89.632812 106.695312 85.644531 106.890625 83.347656 C 107.085938 81.046875 111.890625 77.898438 111.886719 75.59375 C 111.875 73.179688 107.675781 69.128906 107.996094 66.734375 Z M 107.996094 66.734375 " fill-opacity="1" fill-rule="nonzero"/></g><g clip-path="url(#id3)"><path fill="rgb(0%, 0%, 0%)" d="M 23.941406 110.320312 C 23.941406 112.890625 21.855469 114.972656 19.277344 114.972656 L 5.292969 114.972656 C 2.71875 114.972656 0.628906 112.890625 0.628906 110.320312 L 0.628906 66.105469 C 0.628906 63.535156 2.71875 61.453125 5.292969 61.453125 L 19.277344 61.453125 C 21.855469 61.453125 23.941406 63.535156 23.941406 66.105469 Z M 23.941406 110.320312 " fill-opacity="1" fill-rule="nonzero"/></g></svg>